# xmcd
#
# Track frame offsets: 
#        150
#        7460
#        68293
#        109192
#        146782
#        170392
#        232621
#        259072
#
# Disc length: 4325 seconds
#
# Revision: 1
# Processed by: cddbd v1.5.2PL0 Copyright (c) Steve Scherf et al.
# Submitted via: ExactAudioCopy v0.99pb5
#
DISCID=6410e308
DTITLE=String Cheese Incident - OTR 06-19-2002 St. Louis, MO [CD1]
DYEAR=2002
DGENRE=Bluegrass
TTITLE0=Intro
TTITLE1='Round the Wheel
TTITLE2=Midnight Moonlight
TTITLE3=Skat
TTITLE4=Texas Town
TTITLE5=Turn this Around
TTITLE6=The Joker
TTITLE7=Shantytown
EXTD=
EXTT0=
EXTT1=
EXTT2=
EXTT3=
EXTT4=
EXTT5=
EXTT6=
EXTT7=
PLAYORDER=
